# xmcd CD database file
#
# Track frame offsets:
#	150
#	11902
#	29249
#	40289
#	53684
#	68399
#	79648
#	89165
#	103625
#	116120
#	127220
#	139640
#	149240
#	162852
#	173067
#	184302
#	195604
#	209974
#	222611
#	235556
#	250136
#	260201
#	272996
#	286151
#
# Disc length: 3969 seconds
#
# Revision: 0
# Processed by: cddbd v1.5.2PL0 Copyright (c) Steve Scherf et al.
# Submitted via: CDex 1.51
#
DISCID=850f7f18
DTITLE=Sy Oliver and his Orchestra - Mixed Doubles
DYEAR=1900
DGENRE=Jazz
TTITLE0=Annie Larie
TTITLE1=I'll Fly Away
TTITLE2=Chiu Chiu
TTITLE3=Oh, Them Golden Slippers
TTITLE4=This Is Love
TTITLE5=The Blue Tail Fly
TTITLE6=Lazy Mississippy\i Moon
TTITLE7=Intermezzo
TTITLE8=I Found The One I Love
TTITLE9=Arkansas Traveler
TTITLE10=Mansion Over The Hilltop
TTITLE11=I'm A Little Teapot
TTITLE12=I've Been Working On The Railroad
TTITLE13=I Like You
TTITLE14=Easy Walker
TTITLE15=I'll Take You Home Again Kathleen
TTITLE16=Old Time Religion
TTITLE17=Back Home
TTITLE18=I'm The Guy That Loves Ya
TTITLE19=Last Night In Town
TTITLE20=Five Flats Furnished
TTITLE21=You Tell Me Your Dream
TTITLE22=Mixed Doubles
TTITLE23=Lazy
EXTD=
EXTT0=
EXTT1=
EXTT2=
EXTT3=
EXTT4=
EXTT5=
EXTT6=
EXTT7=
EXTT8=
EXTT9=
EXTT10=
EXTT11=
EXTT12=
EXTT13=
EXTT14=
EXTT15=
EXTT16=
EXTT17=
EXTT18=
EXTT19=
EXTT20=
EXTT21=
EXTT22=
EXTT23=
PLAYORDER=
